<?xml version="1.0" standalone="no"?>
<!DOCTYPE svg PUBLIC "-//W3C//DTD SVG 20010904//EN"
 "http://www.w3.org/TR/2001/REC-SVG-20010904/DTD/svg10.dtd">
<svg version="1.0" xmlns="http://www.w3.org/2000/svg"
 width="122.000000pt" height="32.000000pt" viewBox="0 0 122.000000 32.000000"
 preserveAspectRatio="xMidYMid meet">
a
<g transform="translate(0.000000,32.000000) scale(0.100000,-0.100000)"
fill="#fff" stroke="#0A3D62">

  <text x="0" y="20" font-family="Arial, sans-serif" font-size="30" fill="#ffffff">GAMETURF</text>
<path d="M0 160 l0 -160 610 0 610 0 0 160 0 160 -610 0 -610 0 0 -160z m182
97 c4 -7 8 -24 8 -39 0 -23 -4 -28 -25 -28 -21 0 -25 5 -25 30 0 20 -5 30 -15
30 -12 0 -15 -16 -15 -80 l0 -80 30 0 c17 0 30 5 30 10 0 6 -11 10 -25 10 -21
0 -25 5 -25 30 0 28 3 30 35 30 l35 0 0 -64 c0 -70 -5 -76 -65 -76 -56 0 -65
18 -65 130 0 84 3 101 18 110 21 13 93 4 104 -13z m128 6 c3 -3 7 -53 8 -112
3 -102 2 -109 -17 -114 -26 -6 -31 0 -31 40 0 23 -5 33 -15 33 -9 0 -15 -9
-15 -24 0 -35 -10 -56 -26 -56 -17 0 -17 -1 -2 132 12 114 16 121 68 110 14
-3 27 -7 30 -9z m516 -95 c-1 -71 3 -102 11 -105 9 -3 13 24 15 104 2 88 6
108 18 108 12 0 15 -19 18 -105 1 -58 -2 -112 -7 -120 -6 -9 -26 -15 -51 -15
-61 0 -70 18 -70 136 0 102 3 109 45 101 20 -3 21 -10 21 -104z m322 102 c7 0
12 -13 12 -30 0 -25 -4 -30 -25 -30 -20 0 -25 -5 -25 -24 0 -18 6 -26 22 -28
32 -5 35 -28 4 -28 -25 0 -26 -3 -26 -51 0 -48 -1 -51 -22 -45 -13 3 -26 6
-30 6 -5 0 -8 51 -8 114 0 111 1 115 23 119 12 3 31 3 42 1 11 -2 26 -4 33 -4z
m-741 -47 l10 -48 2 48 c1 47 1 47 36 47 l35 0 0 -110 c0 -60 0 -113 0 -117 0
-5 -6 -8 -12 -8 -9 0 -15 23 -19 65 -4 46 -6 54 -7 25 -3 -61 -12 -85 -33 -85
-13 0 -19 10 -23 43 -12 88 -13 90 -15 20 -1 -66 -3 -73 -21 -73 -19 0 -20 7
-20 120 l0 120 28 0 c26 0 30 -4 39 -47z m221 15 c3 -26 1 -28 -32 -28 -29 0
-36 -4 -36 -20 0 -15 7 -20 25 -20 32 0 34 -27 3 -32 -15 -2 -24 -11 -26 -25
-3 -20 1 -23 32 -23 34 0 36 -2 36 -31 0 -31 -1 -31 -37 -25 -21 3 -48 6 -60
6 -22 0 -23 4 -23 69 0 37 3 89 6 115 l7 47 51 -3 c47 -3 51 -5 54 -30z m122
13 c0 -12 -8 -21 -21 -23 -21 -3 -22 -8 -20 -101 2 -98 2 -99 -21 -95 -22 3
-23 7 -26 96 -1 50 -7 92 -12 92 -6 0 -10 11 -10 25 0 24 3 25 55 25 48 0 55
-3 55 -19z m279 1 c6 -11 6 -33 1 -57 -5 -21 -5 -46 -1 -54 4 -9 6 -22 5 -28
-1 -7 -2 -29 -3 -48 -1 -28 -5 -35 -20 -35 -17 0 -20 8 -23 52 -2 32 -8 53
-16 56 -10 3 -13 -8 -11 -49 3 -51 2 -53 -21 -53 -25 0 -25 0 -28 117 l-3 117
55 0 c43 0 57 -4 65 -18z"/>
<path d="M240 181 c0 -30 4 -41 16 -41 11 0 14 9 12 37 -4 52 -28 56 -28 4z"/>
<path d="M950 218 c0 -27 4 -38 15 -38 19 0 19 30 0 56 -13 18 -14 17 -15 -18z"/>
</g>
</svg>
